<svg height="512" viewBox="0 0 56 56" width="512" xmlns="http://www.w3.org/2000/svg"><g id="Page-1" fill="none" fill-rule="evenodd"><g id="001---Throat-Chakra" fill="rgb(0,0,0)" fill-rule="nonzero"><path id="Shape" d="m53.418 17.469c-.05.22-.093.454-.137.7-.1459908 1.4817257-.7523699 2.880524-1.734 4-.094-.02-.188-.048-.283-.063-.5934449-2.3361085-1.5374969-4.5687914-2.8-6.622 1.5958858.0036534 3.13977.5678331 4.362 1.594.205.136.401.271.592.391zm-23.582 32.448 18.526-30.234c2.6527855 6.4819414 2.05813 13.8400189-1.6011275 19.8118419-3.6592576 5.971823-9.9451205 9.8425911-16.9248725 10.4221581zm-23.836-21.917c-.00178147-2.8758031.56332316-5.7237538 1.663-8.381l18.5 30.3c-11.3909232-.9664431-20.14890638-10.4871609-20.163-21.919zm22-22c7.0081211.00114387 13.5955768 3.34427579 17.734 9h-35.468c4.1384232-5.65572421 10.7258789-8.99885613 17.734-9zm-19.04 11h12.14c-3.7321651 2.3380495-6.0248689 6.4084458-6.09 10.812l-6.319-10.346c.087-.157.179-.311.269-.466zm19.04 22c-6.0751322 0-11-4.9248678-11-11s4.9248678-11 11-11 11 4.9248678 11 11c-.0071635 6.0721626-4.9278374 10.9928365-11 11zm0 2c2.0149318-.0016717 4.0014116-.4756869 5.8-1.384l-5.8 9.467-5.772-9.452c1.7915277.8985243 3.7677759 1.3672498 5.772 1.369zm12.994-13.12c-.0435449-4.4284492-2.34058-8.52949-6.094-10.88h12.14c.1.174.2.345.3.522zm5.766-19.48c.241.052.474.1.7.138.037.224.086.457.138.7.4306647 1.4243604.4033824 2.9479711-.078 4.356-.1.019-.193.034-.289.058-1.4430447-1.926074-3.1653303-3.6261148-5.11-5.044 1.4740207-.61153133 3.1161654-.68516058 4.639-.208zm-8.924-5.681c.242-.044.475-.087.7-.137.12.191.255.387.4.59.940496 1.14943657 1.499717 2.56321716 1.6 4.045-.086.056-.174.109-.257.168-2.0631782-1.23252877-4.3007772-2.14617853-6.637-2.71 1.1258327-1.12298321 2.6100905-1.8152122 4.194-1.956zm-10.428-1.837c.207-.134.407-.264.592-.4.185.133.386.263.594.4 1.3102928.7004398 2.3694802 1.79213684 3.03 3.123-.056.082-.116.161-.169.246-2.3809694-.34828623-4.8008515-.33547549-7.178.038.6143867-1.46606404 1.721932-2.67124035 3.131-3.407zm-10.334 2.29c.14-.2.275-.4.395-.59.22.05.454.093.7.137 1.481525.14603689 2.8802145.75201908 4 1.733-.019.094-.046.189-.061.283-2.3364747.59329106-4.5695099 1.53734943-6.623 2.8.0043867-1.59518523.5665005-3.1386104 1.589-4.363zm-8.674 6.068c.052-.241.1-.474.138-.7.224-.037.457-.086.7-.138 1.4243604-.43066471 2.9479711-.40338243 4.356.078.019.1.034.193.058.289-1.926074 1.4430447-3.6261148 3.1653303-5.044 5.11-.61153133-1.4740207-.68516058-3.1161654-.208-4.639zm-5.228 7.834c1.1500468-.9394569 2.56348286-1.4985416 4.045-1.6.056.086.109.174.168.257-1.23363807 2.0657072-2.14796486 4.3060101-2.712 6.645-1.12245314-1.1316504-1.81370427-2.6202813-1.954-4.208-.044-.242-.087-.476-.137-.7.191-.118.387-.254.59-.394zm-2.289 11.52c-.134-.208-.264-.409-.4-.594.132-.185.262-.385.4-.592.70125848-1.3111362 1.79592451-2.36943 3.13-3.026.08.055.157.114.24.165-.34890827 2.3836598-.33542254 4.8063721.04 7.186-1.46737771-.6175383-2.6733393-1.7276595-3.41-3.139zm1.7 9.937c.05-.22.093-.453.137-.7.14467158-1.4828237.75278433-2.8823927 1.738-4 .092.019.188.046.279.06.59345233 2.3357916 1.53750696 4.5681436 2.8 6.621-1.59561353-.0051792-3.13899435-.5691749-4.362-1.594-.206-.132-.402-.267-.593-.387zm6.657 9.069c-.241-.052-.474-.1-.7-.138-.037-.224-.086-.457-.138-.7-.43066471-1.4243604-.40338243-2.9479711.078-4.356.1-.019.193-.034.289-.058 1.4430447 1.926074 3.1653303 3.6261148 5.11 5.044-1.4740207.6115313-3.1161654.6851606-4.639.208zm8.925 5.685c-.242.044-.476.087-.7.137-.12-.191-.255-.387-.395-.59-.940496-1.1494366-1.499717-2.5632172-1.6-4.045.086-.056.174-.109.257-.168 2.0657072 1.2336381 4.3060101 2.1479649 6.645 2.712-1.1319802 1.1207762-2.6201553 1.810565-4.207 1.95zm10.429 1.836c-.208.134-.409.264-.594.4-.185-.132-.385-.262-.592-.4-1.3111362-.7012585-2.36943-1.7959245-3.026-3.13.055-.08.114-.157.165-.24 1.1435455.1656427 2.2975201.2488572 3.453.249 1.2500299-.0002 2.4981428-.097829 3.733-.292-.6177324 1.4670046-1.7278321 2.6725892-3.139 3.409zm10.332-2.289c-.14.2-.275.4-.4.59-.22-.05-.453-.093-.7-.137-1.4828237-.1446716-2.8823927-.7527843-4-1.738.019-.092.046-.188.06-.279 2.3357916-.5934523 4.5681436-1.537507 6.621-2.8-.0028393 1.5931611-.5620411 3.1352988-1.581 4.36zm8.674-6.072c-.052.241-.1.474-.138.7-.224.037-.457.086-.7.138-1.4242946.4311384-2.9480537.4038535-4.356-.078-.019-.1-.034-.193-.058-.289 1.926074-1.4430447 3.6261148-3.1653303 5.044-5.11.6115313 1.4740207.6851606 3.1161654.208 4.639zm5.232-7.834c-1.1493005.9407276-2.563158 1.499979-4.045 1.6-.056-.085-.109-.173-.168-.256 1.2325288-2.0631782 2.1461785-4.3007772 2.71-6.637 1.1242503 1.1273766 1.8165799 2.6139739 1.956 4.2.044.242.087.475.137.7-.195.118-.391.253-.594.393zm2.289-10.332c-.7004398 1.3102928-1.7921368 2.3694802-3.123 3.03-.082-.056-.161-.116-.246-.169.3486102-2.3819787.3354619-4.8029483-.039-7.181 1.467761.6140294 2.6739747 1.7229393 3.409 3.134.134.207.264.407.4.592-.141.185-.271.386-.405.594z"/></g></g></svg>